{
    "asset" : {
        "generator" : "Khronos glTF Blender I/O v3.3.32",
        "version" : "2.0"
    },
    "extensionsUsed" : [
        "KHR_materials_specular",
        "KHR_materials_ior"
    ],
    "scene" : 0,
    "scenes" : [
        {
            "name" : "Scene",
            "nodes" : [
                7
            ]
        }
    ],
    "nodes" : [
        {
            "mesh" : 0,
            "name" : "Body1",
            "scale" : [
                32.097068786621094,
                32.097068786621094,
                32.097068786621094
            ],
            "translation" : [
                0,
                -8.05570962256752e-05,
                -494.45599365234375
            ]
        },
        {
            "mesh" : 1,
            "name" : "Body2",
            "scale" : [
                32.097068786621094,
                32.097068786621094,
                32.097068786621094
            ],
            "translation" : [
                0,
                -7.903556252131239e-05,
                -485.1168212890625
            ]
        },
        {
            "mesh" : 2,
            "name" : "Body3",
            "scale" : [
                32.097068786621094,
                32.097068786621094,
                32.097068786621094
            ],
            "translation" : [
                0,
                -7.72159401094541e-05,
                -473.9480285644531
            ]
        },
        {
            "mesh" : 3,
            "name" : "Body4",
            "scale" : [
                32.097068786621094,
                32.097068786621094,
                32.097068786621094
            ],
            "translation" : [
                0,
                -7.816625293344259e-05,
                -479.781005859375
            ]
        },
        {
            "mesh" : 4,
            "name" : "Body5",
            "scale" : [
                32.097068786621094,
                32.097068786621094,
                32.097068786621094
            ],
            "translation" : [
                0,
                -7.730239303782582e-05,
                -474.478759765625
            ]
        },
        {
            "mesh" : 5,
            "name" : "Body6",
            "scale" : [
                32.097068786621094,
                32.097068786621094,
                32.097068786621094
            ],
            "translation" : [
                0,
                -7.517231279052794e-05,
                -461.40435791015625
            ]
        },
        {
            "mesh" : 6,
            "name" : "Body7",
            "scale" : [
                32.097068786621094,
                32.097068786621094,
                32.097068786621094
            ],
            "translation" : [
                0,
                -7.814465061528608e-05,
                -479.64849853515625
            ]
        },
        {
            "children" : [
                0,
                1,
                2,
                3,
                4,
                5,
                6
            ],
            "name" : "\uc18c\uc6d0\uc131\ucde8 v6",
            "rotation" : [
                0.7071068286895752,
                0,
                0,
                0.7071067094802856
            ],
            "scale" : [
                0.0010000000474974513,
                0.0010000000474974513,
                0.0010000000474974513
            ]
        }
    ],
    "animations" : [
        {
            "channels" : [
                {
                    "sampler" : 0,
                    "target" : {
                        "node" : 0,
                        "path" : "rotation"
                    }
                }
            ],
            "name" : "Body1Action.001",
            "samplers" : [
                {
                    "input" : 28,
                    "interpolation" : "LINEAR",
                    "output" : 29
                }
            ]
        },
        {
            "channels" : [
                {
                    "sampler" : 0,
                    "target" : {
                        "node" : 1,
                        "path" : "rotation"
                    }
                }
            ],
            "name" : "Body2Action.001",
            "samplers" : [
                {
                    "input" : 28,
                    "interpolation" : "LINEAR",
                    "output" : 30
                }
            ]
        },
        {
            "channels" : [
                {
                    "sampler" : 0,
                    "target" : {
                        "node" : 2,
                        "path" : "rotation"
                    }
                }
            ],
            "name" : "Body3Action.001",
            "samplers" : [
                {
                    "input" : 28,
                    "interpolation" : "LINEAR",
                    "output" : 31
                }
            ]
        },
        {
            "channels" : [
                {
                    "sampler" : 0,
                    "target" : {
                        "node" : 3,
                        "path" : "rotation"
                    }
                }
            ],
            "name" : "Body4Action.001",
            "samplers" : [
                {
                    "input" : 28,
                    "interpolation" : "LINEAR",
                    "output" : 32
                }
            ]
        },
        {
            "channels" : [
                {
                    "sampler" : 0,
                    "target" : {
                        "node" : 4,
                        "path" : "rotation"
                    }
                }
            ],
            "name" : "Body5Action.001",
            "samplers" : [
                {
                    "input" : 28,
                    "interpolation" : "LINEAR",
                    "output" : 33
                }
            ]
        },
        {
            "channels" : [
                {
                    "sampler" : 0,
                    "target" : {
                        "node" : 5,
                        "path" : "rotation"
                    }
                }
            ],
            "name" : "Body6Action.001",
            "samplers" : [
                {
                    "input" : 28,
                    "interpolation" : "LINEAR",
                    "output" : 34
                }
            ]
        },
        {
            "channels" : [
                {
                    "sampler" : 0,
                    "target" : {
                        "node" : 6,
                        "path" : "rotation"
                    }
                }
            ],
            "name" : "Body7Action.001",
            "samplers" : [
                {
                    "input" : 28,
                    "interpolation" : "LINEAR",
                    "output" : 35
                }
            ]
        }
    ],
    "materials" : [
        {
            "doubleSided" : true,
            "extensions" : {
                "KHR_materials_specular" : {
                    "specularColorFactor" : [
                        2.371357614441398,
                        2.371357614441398,
                        2.371357614441398
                    ]
                },
                "KHR_materials_ior" : {
                    "ior" : 1.4500000476837158
                }
            },
            "name" : "Paint - Enamel Glossy (Red)",
            "pbrMetallicRoughness" : {
                "baseColorFactor" : [
                    0.49692049622535706,
                    0.026238329708576202,
                    0.003364700824022293,
                    1
                ],
                "roughnessFactor" : 0
            }
        }
    ],
    "meshes" : [
        {
            "name" : "Body1",
            "primitives" : [
                {
                    "attributes" : {
                        "POSITION" : 0,
                        "NORMAL" : 1,
                        "TEXCOORD_0" : 2
                    },
                    "indices" : 3,
                    "material" : 0
                }
            ]
        },
        {
            "name" : "Body2",
            "primitives" : [
                {
                    "attributes" : {
                        "POSITION" : 4,
                        "NORMAL" : 5,
                        "TEXCOORD_0" : 6
                    },
                    "indices" : 7,
                    "material" : 0
                }
            ]
        },
        {
            "name" : "Body3",
            "primitives" : [
                {
                    "attributes" : {
                        "POSITION" : 8,
                        "NORMAL" : 9,
                        "TEXCOORD_0" : 10
                    },
                    "indices" : 11,
                    "material" : 0
                }
            ]
        },
        {
            "name" : "Body4",
            "primitives" : [
                {
                    "attributes" : {
                        "POSITION" : 12,
                        "NORMAL" : 13,
                        "TEXCOORD_0" : 14
                    },
                    "indices" : 15,
                    "material" : 0
                }
            ]
        },
        {
            "name" : "Body5",
            "primitives" : [
                {
                    "attributes" : {
                        "POSITION" : 16,
                        "NORMAL" : 17,
                        "TEXCOORD_0" : 18
                    },
                    "indices" : 19,
                    "material" : 0
                }
            ]
        },
        {
            "name" : "Body6",
            "primitives" : [
                {
                    "attributes" : {
                        "POSITION" : 20,
                        "NORMAL" : 21,
                        "TEXCOORD_0" : 22
                    },
                    "indices" : 23,
                    "material" : 0
                }
            ]
        },
        {
            "name" : "Body7",
            "primitives" : [
                {
                    "attributes" : {
                        "POSITION" : 24,
                        "NORMAL" : 25,
                        "TEXCOORD_0" : 26
                    },
                    "indices" : 27,
                    "material" : 0
                }
            ]
        }
    ],
    "accessors" : [
        {
            "bufferView" : 0,
            "componentType" : 5126,
            "count" : 2842,
            "max" : [
                1.4589365720748901,
                0.5000009536743164,
                2.4912123680114746
            ],
            "min" : [
                -1.4519511461257935,
                9.968946415028768e-07,
                -0.1641678810119629
            ],
            "type" : "VEC3"
        },
        {
            "bufferView" : 1,
            "componentType" : 5126,
            "count" : 2842,
            "type" : "VEC3"
        },
        {
            "bufferView" : 2,
            "componentType" : 5126,
            "count" : 2842,
            "type" : "VEC2"
        },
        {
            "bufferView" : 3,
            "componentType" : 5123,
            "count" : 11304,
            "type" : "SCALAR"
        },
        {
            "bufferView" : 4,
            "componentType" : 5126,
            "count" : 6547,
            "max" : [
                1.6012375354766846,
                0.5000008940696716,
                -3.076735496520996
            ],
            "min" : [
                -1.6422673463821411,
                8.961376352090156e-07,
                -4.121543884277344
            ],
            "type" : "VEC3"
        },
        {
            "bufferView" : 5,
            "componentType" : 5126,
            "count" : 6547,
            "type" : "VEC3"
        },
        {
            "bufferView" : 6,
            "componentType" : 5126,
            "count" : 6547,
            "type" : "VEC2"
        },
        {
            "bufferView" : 7,
            "componentType" : 5123,
            "count" : 30858,
            "type" : "SCALAR"
        },
        {
            "bufferView" : 8,
            "componentType" : 5126,
            "count" : 2077,
            "max" : [
                2.01534104347229,
                0.5000008344650269,
                2.118666410446167
            ],
            "min" : [
                0.45917585492134094,
                8.394466703975922e-07,
                -2.047511577606201
            ],
            "type" : "VEC3"
        },
        {
            "bufferView" : 9,
            "componentType" : 5126,
            "count" : 2077,
            "type" : "VEC3"
        },
        {
            "bufferView" : 10,
            "componentType" : 5126,
            "count" : 2077,
            "type" : "VEC2"
        },
        {
            "bufferView" : 11,
            "componentType" : 5123,
            "count" : 9546,
            "type" : "SCALAR"
        },
        {
            "bufferView" : 12,
            "componentType" : 5126,
            "count" : 686,
            "max" : [
                0.5591758489608765,
                0.5000008940696716,
                1.8342180252075195
            ],
            "min" : [
                -0.6000000238418579,
                8.690541903888516e-07,
                1.0342178344726562
            ],
            "type" : "VEC3"
        },
        {
            "bufferView" : 13,
            "componentType" : 5126,
            "count" : 686,
            "type" : "VEC3"
        },
        {
            "bufferView" : 14,
            "componentType" : 5126,
            "count" : 686,
            "type" : "VEC2"
        },
        {
            "bufferView" : 15,
            "componentType" : 5123,
            "count" : 2376,
            "type" : "SCALAR"
        },
        {
            "bufferView" : 16,
            "componentType" : 5126,
            "count" : 1146,
            "max" : [
                1.5397939682006836,
                0.5000008344650269,
                -2.2309770584106445
            ],
            "min" : [
                -1.6602061986923218,
                8.421400821134739e-07,
                -3.1309776306152344
            ],
            "type" : "VEC3"
        },
        {
            "bufferView" : 17,
            "componentType" : 5126,
            "count" : 1146,
            "type" : "VEC3"
        },
        {
            "bufferView" : 18,
            "componentType" : 5126,
            "count" : 1146,
            "type" : "VEC2"
        },
        {
            "bufferView" : 19,
            "componentType" : 5123,
            "count" : 4032,
            "type" : "SCALAR"
        },
        {
            "bufferView" : 20,
            "componentType" : 5126,
            "count" : 2026,
            "max" : [
                -0.5,
                0.5000007748603821,
                1.7615852355957031
            ],
            "min" : [
                -2.099895715713501,
                7.757763000881823e-07,
                -2.4383158683776855
            ],
            "type" : "VEC3"
        },
        {
            "bufferView" : 21,
            "componentType" : 5126,
            "count" : 2026,
            "type" : "VEC3"
        },
        {
            "bufferView" : 22,
            "componentType" : 5126,
            "count" : 2026,
            "type" : "VEC2"
        },
        {
            "bufferView" : 23,
            "componentType" : 5123,
            "count" : 9189,
            "type" : "SCALAR"
        },
        {
            "bufferView" : 24,
            "componentType" : 5126,
            "count" : 4063,
            "max" : [
                2.0590245723724365,
                0.5000008940696716,
                4.743630886077881
            ],
            "min" : [
                -2.0528225898742676,
                8.683812211529585e-07,
                2.159595012664795
            ],
            "type" : "VEC3"
        },
        {
            "bufferView" : 25,
            "componentType" : 5126,
            "count" : 4063,
            "type" : "VEC3"
        },
        {
            "bufferView" : 26,
            "componentType" : 5126,
            "count" : 4063,
            "type" : "VEC2"
        },
        {
            "bufferView" : 27,
            "componentType" : 5123,
            "count" : 15384,
            "type" : "SCALAR"
        },
        {
            "bufferView" : 28,
            "componentType" : 5126,
            "count" : 201,
            "max" : [
                8
            ],
            "min" : [
                0
            ],
            "type" : "SCALAR"
        },
        {
            "bufferView" : 29,
            "componentType" : 5126,
            "count" : 201,
            "type" : "VEC4"
        },
        {
            "bufferView" : 30,
            "componentType" : 5126,
            "count" : 201,
            "type" : "VEC4"
        },
        {
            "bufferView" : 31,
            "componentType" : 5126,
            "count" : 201,
            "type" : "VEC4"
        },
        {
            "bufferView" : 32,
            "componentType" : 5126,
            "count" : 201,
            "type" : "VEC4"
        },
        {
            "bufferView" : 33,
            "componentType" : 5126,
            "count" : 201,
            "type" : "VEC4"
        },
        {
            "bufferView" : 34,
            "componentType" : 5126,
            "count" : 201,
            "type" : "VEC4"
        },
        {
            "bufferView" : 35,
            "componentType" : 5126,
            "count" : 201,
            "type" : "VEC4"
        }
    ],
    "bufferViews" : [
        {
            "buffer" : 0,
            "byteLength" : 34104,
            "byteOffset" : 0,
            "target" : 34962
        },
        {
            "buffer" : 0,
            "byteLength" : 34104,
            "byteOffset" : 34104,
            "target" : 34962
        },
        {
            "buffer" : 0,
            "byteLength" : 22736,
            "byteOffset" : 68208,
            "target" : 34962
        },
        {
            "buffer" : 0,
            "byteLength" : 22608,
            "byteOffset" : 90944,
            "target" : 34963
        },
        {
            "buffer" : 0,
            "byteLength" : 78564,
            "byteOffset" : 113552,
            "target" : 34962
        },
        {
            "buffer" : 0,
            "byteLength" : 78564,
            "byteOffset" : 192116,
            "target" : 34962
        },
        {
            "buffer" : 0,
            "byteLength" : 52376,
            "byteOffset" : 270680,
            "target" : 34962
        },
        {
            "buffer" : 0,
            "byteLength" : 61716,
            "byteOffset" : 323056,
            "target" : 34963
        },
        {
            "buffer" : 0,
            "byteLength" : 24924,
            "byteOffset" : 384772,
            "target" : 34962
        },
        {
            "buffer" : 0,
            "byteLength" : 24924,
            "byteOffset" : 409696,
            "target" : 34962
        },
        {
            "buffer" : 0,
            "byteLength" : 16616,
            "byteOffset" : 434620,
            "target" : 34962
        },
        {
            "buffer" : 0,
            "byteLength" : 19092,
            "byteOffset" : 451236,
            "target" : 34963
        },
        {
            "buffer" : 0,
            "byteLength" : 8232,
            "byteOffset" : 470328,
            "target" : 34962
        },
        {
            "buffer" : 0,
            "byteLength" : 8232,
            "byteOffset" : 478560,
            "target" : 34962
        },
        {
            "buffer" : 0,
            "byteLength" : 5488,
            "byteOffset" : 486792,
            "target" : 34962
        },
        {
            "buffer" : 0,
            "byteLength" : 4752,
            "byteOffset" : 492280,
            "target" : 34963
        },
        {
            "buffer" : 0,
            "byteLength" : 13752,
            "byteOffset" : 497032,
            "target" : 34962
        },
        {
            "buffer" : 0,
            "byteLength" : 13752,
            "byteOffset" : 510784,
            "target" : 34962
        },
        {
            "buffer" : 0,
            "byteLength" : 9168,
            "byteOffset" : 524536,
            "target" : 34962
        },
        {
            "buffer" : 0,
            "byteLength" : 8064,
            "byteOffset" : 533704,
            "target" : 34963
        },
        {
            "buffer" : 0,
            "byteLength" : 24312,
            "byteOffset" : 541768,
            "target" : 34962
        },
        {
            "buffer" : 0,
            "byteLength" : 24312,
            "byteOffset" : 566080,
            "target" : 34962
        },
        {
            "buffer" : 0,
            "byteLength" : 16208,
            "byteOffset" : 590392,
            "target" : 34962
        },
        {
            "buffer" : 0,
            "byteLength" : 18378,
            "byteOffset" : 606600,
            "target" : 34963
        },
        {
            "buffer" : 0,
            "byteLength" : 48756,
            "byteOffset" : 624980,
            "target" : 34962
        },
        {
            "buffer" : 0,
            "byteLength" : 48756,
            "byteOffset" : 673736,
            "target" : 34962
        },
        {
            "buffer" : 0,
            "byteLength" : 32504,
            "byteOffset" : 722492,
            "target" : 34962
        },
        {
            "buffer" : 0,
            "byteLength" : 30768,
            "byteOffset" : 754996,
            "target" : 34963
        },
        {
            "buffer" : 0,
            "byteLength" : 804,
            "byteOffset" : 785764
        },
        {
            "buffer" : 0,
            "byteLength" : 3216,
            "byteOffset" : 786568
        },
        {
            "buffer" : 0,
            "byteLength" : 3216,
            "byteOffset" : 789784
        },
        {
            "buffer" : 0,
            "byteLength" : 3216,
            "byteOffset" : 793000
        },
        {
            "buffer" : 0,
            "byteLength" : 3216,
            "byteOffset" : 796216
        },
        {
            "buffer" : 0,
            "byteLength" : 3216,
            "byteOffset" : 799432
        },
        {
            "buffer" : 0,
            "byteLength" : 3216,
            "byteOffset" : 802648
        },
        {
            "buffer" : 0,
            "byteLength" : 3216,
            "byteOffset" : 805864
        }
    ],
    "buffers" : [
        {
            "byteLength" : 809080,
            "uri" : "data:application/octet-stream;base64,"
        }
    ]
}
